<svg xmlns="http://www.w3.org/2000/svg" xmlns:xlink="http://www.w3.org/1999/xlink" width="1945" height="1736" version="1.1" viewBox="0 0 1945 1736"><title>Shape</title><desc>Created with Sketch.</desc><g id="Page-1" fill="none" fill-rule="evenodd" stroke="none" stroke-width="1"><path id="Shape" fill="#000" fill-rule="nonzero" d="M581.228301,1544.991 C507.151152,1486.71697 428.112734,1430.8742 374.116191,1352.18527 C260.447656,1213.42168 172.953047,1052.79963 113.136699,883.979707 C76.9718555,774.193574 64.5876758,656.498281 17.9380664,550.974434 C-30.7933008,474.306484 26.3334766,390.55752 110.302773,366.199434 C147.660449,358.996855 213.387773,323.728535 134.045449,348.967949 C62.9009961,401.133457 56.0479102,301.558574 128.98541,295.25252 C178.765254,288.650156 197.090801,247.919121 180.049258,211.252832 C126.592148,176.37959 309.627285,138.117793 217.520898,86.0966406 C121.638477,-17.3834375 351.695508,-37.3044922 294.92582,80.2388477 C281.356406,170.612969 455.737813,63.6379688 415.242305,168.022168 C456.383613,218.159102 569.261992,179.456641 566.428066,249.750156 C626.343184,253.868086 646.910039,304.248145 703.094707,308.122949 C761.421914,334.456426 867.052129,355.167637 886.866816,420.849375 C829.048652,466.610059 695.200742,326.311738 688.735137,453.002656 C706.224941,640.193711 701.765117,833.014629 770.227598,1011.26324 C802.608809,1119.18035 881.153379,1204.12975 952.047109,1288.19781 C1019.91697,1370.51082 1111.82582,1428.49613 1205.52771,1477.28068 C1287.69637,1516.02873 1376.28504,1541.70881 1465.86141,1557.86143 C1502.1782,1530.08439 1566.31002,1426.80186 1622.94295,1470.32123 C1625.67811,1519.31852 1510.52803,1572.66926 1617.54102,1567.25213 C1680.43441,1548.27318 1724.00697,1615.83154 1775.7698,1554.87555 C1823.46789,1611.37172 1973.99266,1518.80947 1940.06912,1634.27105 C1894.16408,1663.88672 1827.24393,1645.99424 1781.2933,1686.74047 C1705.52947,1648.88135 1645.20408,1720.57283 1561.29557,1711.53162 C1468.1483,1728.21607 1373.34475,1734.9324 1278.91348,1735.06916 C1123.95168,1722.84453 965.722891,1717.68572 818.313164,1663.72717 C735.247988,1639.59701 654.218984,1592.294 581.228301,1544.991 Z M712.090332,1601.73029 C793.17252,1636.75549 872.469258,1673.71809 961.346641,1684.89424 C1102.34395,1704.4734 1247.95303,1734.67408 1389.44418,1707.15537 C1325.41113,1678.24629 1259.18236,1718.38471 1195.39244,1686.48975 C1118.88404,1702.93107 1036.76857,1682.26545 958.953379,1672.07699 C870.51666,1632.69074 775.044512,1605.6127 692.222461,1554.42729 C588.681602,1516.62895 745.732754,1602.92313 773.699727,1609.93576 C838.386172,1646.63244 702.547676,1591.09357 683.363594,1575.84508 C629.177109,1545.43926 622.278438,1551.7985 678.014844,1582.65258 C689.236582,1589.21695 700.321563,1596.12322 712.090332,1601.73029 L712.090332,1601.73029 Z M557.781934,1492.68113 C636.379688,1521.79535 557.432441,1437.43098 521.465137,1442.30867 C505.510059,1414.63041 460.509141,1397.14061 492.252148,1382.28719 C435.170957,1402.11707 432.435801,1306.91844 405.616074,1320.54104 C345.199512,1301.46332 382.108926,1233.88977 310.121133,1192.36857 C303.556758,1148.63646 238.627188,1110.73176 217.961563,1044.7993 C208.821582,1011.02012 144.583398,914.096816 184.03043,1004.30379 C217.61207,1091.145 276.683848,1165.57924 325.871074,1239.85393 C364.026504,1310.58811 409.141387,1384.57408 478.644746,1428.69367 C502.098711,1451.19793 524.694141,1485.62291 557.774336,1492.68113 L557.781934,1492.68113 Z M903.961543,1638.79166 C936.152812,1659.11539 1091.91236,1683.30633 994.388848,1647.13389 C978.031094,1650.56803 813.541836,1600.58305 903.961543,1638.79166 L903.961543,1638.79166 Z M548.246875,1349.99715 C586.007227,1378.95182 700.579883,1353.72 606.072637,1332.71248 C563.100293,1309.80555 466.222578,1294.11639 532.261406,1346.52502 L548.246875,1349.99715 Z M731.069277,1446.86727 C823.380801,1472.95762 653.42123,1388.44129 708.276309,1437.23344 L720.455352,1442.74934 L731.069277,1446.86727 Z M731.874629,1397.94596 C798.939141,1406.57689 652.038457,1352.28404 717.11998,1393.06826 L731.874629,1397.94596 Z M964.970723,1541.26814 C1027.62859,1503.86488 1006.96297,1628.96029 1071.25434,1551.85168 C1134.64158,1505.55156 1016.49803,1609.08482 1094.60193,1560.10273 C1151.13609,1522.2892 1234.59635,1578.0332 1287.31648,1596.16881 C1325.21359,1594.33018 1362.08502,1628.96029 1400.97742,1607.88439 C1475.79914,1587.71262 1254.62377,1577.98762 1312.59389,1542.25584 C1244.139,1562.19209 1193.569,1518.51316 1159.881,1474.6443 C1083.06869,1456.90377 994.290078,1417.66188 955.937109,1349.64766 C940.285938,1324.16512 978.502148,1353.27934 942.428477,1311.54541 C896.173945,1270.4041 873.07707,1223.64813 842.017852,1173.62516 C804.903301,1153.84846 800.534648,1095.57443 796.804199,1171.69535 C797.108105,1123.64777 751.993223,1091.30455 740.961426,1104.72201 C740.763887,1058.45988 789.259727,1081.66313 755.320996,1047.43568 C748.027246,999.486875 723.973066,949.51709 716.762891,895.360996 C705.54875,869.278242 715.167383,813.389883 678.41752,872.454063 C665.045645,934.906797 673.995684,795.748125 694.813262,841.607578 C722.134434,794.806016 684.966699,800.314316 683.477559,806.779922 C701.27127,767.287305 694.760078,711.239395 678.812598,732.604004 C688.30207,690.718125 693.817969,578.493145 664.658164,598.414199 C682.33791,554.598516 698.194219,397.988027 621.374316,457.720801 C590.277109,458.161465 536.379336,469.00332 510.942383,481.668613 C590.778555,525.689434 502.888867,497.56291 470.348105,490.557871 C466.123809,531.296504 433.932539,513.70793 393.687754,514.103008 C457.979121,522.050156 362.38541,579.822734 325.582363,557.379258 C277.686738,580.233008 366.868027,637.367383 326.524473,655.047129 C331.500938,681.631328 253.191895,645.420898 259.308008,706.923926 C212.84834,687.337168 252.94877,779.853828 276.197598,748.559082 C355.243613,769.969277 331.842832,818.708242 333.82582,865.053945 C320.955391,892.025625 270.233438,801.613516 322.543301,805.792227 C281.257637,738.758105 276.896582,781.540508 242.608359,812.690898 C234.661211,814.932207 330.049785,857.00043 270.187852,877.772422 C322.847207,885.924707 324.389531,932.027285 335.12502,961.194688 C366.769258,994.168516 360.250469,924.763926 398.170371,964.423691 C374.161777,929.09459 271.175547,864.894395 354.103965,885.484043 C353.648105,849.957402 339.090996,821.283848 364.527949,821.975234 C389.721777,776.419688 338.148887,934.359766 394.888184,876.435234 C410.577344,869.582148 414.51293,830.826504 442.730625,880.1125 C483.712383,920.456055 457.538457,949.653848 399.705098,912.698848 C410.03791,947.822813 477.056836,960.336152 464.437129,1015.24441 C477.793809,1063.53512 496.484043,1045.74141 512.773418,1042.96066 C525.53748,1089.861 532.808438,1055.38283 533.401055,1033.02293 C591.872617,1045.55906 578.158848,1080.1284 596.484395,1104.27375 C636.774766,1122.44734 538.810586,981.009375 607.972051,1061.74207 C680.742402,1127.46939 635.293223,1154.88934 569.968574,1144.36658 C611.299824,1141.02361 624.60332,1200.26254 676.335762,1198.17318 C723.479219,1220.62426 755.427363,1306.77408 674.147637,1270.89795 C645.975527,1245.461 546.15752,1214.11307 627.695566,1262.45695 C702.912363,1297.3302 762.728711,1318.14777 835.309121,1361.92547 C887.231504,1398.98684 909.67498,1441.45014 929.35291,1449.86074 C885.68918,1470.71631 797.80709,1433.21428 863.078555,1421.74182 C822.339922,1414.3341 776.54125,1393.72166 815.532422,1444.44361 C848.718984,1472.16746 933.030176,1469.22717 948.1875,1472.3574 C935.370254,1500.5827 913.367441,1502.824 948.681348,1505.00453 C909.279902,1526.01965 961.354238,1529.30184 964.97832,1541.26814 L964.970723,1541.26814 Z M884.38998,1313.68035 C860.396582,1288.59289 854.189297,1241.64697 880.120098,1282.46918 C893.438789,1287.84072 922.704961,1359.2435 884.38998,1313.68035 Z M730.681797,1060.54924 C702.114609,996.561777 750.952344,1025.56963 737.041035,1071.034 L730.681797,1060.54924 Z M467.620547,885.119355 C454.856484,864.111836 433.735,802.502441 440.5425,783.683047 C446.651016,814.331992 505.677207,915.532773 469.451582,825.614512 C429.465117,750.245762 517.301621,850.048574 526.342832,868.883164 C530.567129,887.565801 501.650449,863.769941 521.222012,907.631211 C485.50543,857.699414 500.153711,935.210703 467.620547,885.119355 Z M334.919883,773.646543 C304.658418,743.529434 282.746777,715.813184 336.35584,754.956309 C356.975879,755.754063 290.458398,691.918555 341.332305,734.685762 C394.781816,744.433555 367.70377,822.385508 334.919883,773.646543 Z M353.055488,727.543965 C265.074629,649.181738 463.593789,768.472539 367.415059,742.040293 L353.055488,727.543965 Z M605.183711,873.996387 C567.081465,851.188223 595.048438,713.283164 608.07082,807.577676 C645.086602,795.596172 606.019453,856.316641 633.598945,855.716426 C629.283477,894.008613 616.914492,907.790762 605.183711,873.996387 Z M370.286973,701.803105 C313.76041,623.797969 534.586289,780.68957 406.512598,721.579805 C393.140723,718.054492 377.003301,716.808477 370.286973,701.803105 Z M378.986289,672.043086 C412.575527,664.840508 518.190547,731.016094 421.214063,690.923262 C410.440586,678.994941 387.434883,684.41207 378.986289,672.035488 L378.986289,672.043086 Z M667.476895,815.821133 C671.070586,748.657852 687.565098,775.728301 667.628848,825.462559 L667.476895,815.813535 L667.476895,815.821133 Z M403.97498,648.649902 C417.681152,628.569297 367.597402,557.880703 411.169961,623.304121 C430.012148,638.256309 465.667949,648.345996 434.175664,654.652051 C483.704785,698.330977 422.110586,666.481602 403.97498,648.649902 Z M622.954629,612.675 C605.472422,581.91209 645.02582,477.041641 649.447656,542.077578 C631.008145,592.753945 644.129297,621.078008 656.938945,553.109375 C680.696816,499.652266 651.825723,658.686406 622.954629,612.675 Z M695.352695,1362.32055 C745.375664,1375.19098 745.132539,1354.56334 699.911289,1348.40164 C675.621582,1325.80621 598.862461,1301.80521 667.575664,1345.6209 C672.103867,1357.15414 686.463437,1356.85023 695.352695,1362.32055 Z M517.795469,1244.36693 C545.31418,1264.94898 621.571855,1302.59537 557.037363,1252.23051 C578.797051,1226.93031 515.402207,1213.47486 536.424922,1196.53969 C482.914629,1163.78619 494.181953,1166.71889 531.706777,1167.76736 C467.41541,1138.99504 540.991113,1141.18316 537.518984,1126.43611 C512.727832,1121.55842 414.353379,1082.704 472.232324,1129.61193 C413.41127,1099.64678 458.214648,1140.78809 440.436133,1136.46502 C380.262695,1120.06928 493.999609,1182.27889 430.893477,1166.82525 C465.379238,1194.14643 523.752031,1236.87564 445.450586,1195.73434 C435.170957,1210.58775 501.498496,1233.09961 517.787871,1244.36693 L517.795469,1244.36693 Z M1142.73309,1610.87027 C1169.11215,1585.34215 1143.82715,1651.60891 1186.45,1604.6174 C1186.89066,1570.97498 1185.1584,1551.11471 1137.46791,1591.9901 C1124.29357,1599.29904 1118.44338,1630.2443 1142.73309,1610.87787 L1142.73309,1610.87027 Z M710.699961,1333.50264 C740.0725,1359.59299 845.48998,1352.63354 746.332969,1336.73924 C731.669492,1315.02514 653.124922,1320.24473 710.699961,1333.50264 Z M227.299082,1008.78641 C184.67623,947.974766 200.82125,920.645996 159.687539,870.964922 C151.877148,832.961445 89.1433008,746.811621 127.245547,838.074668 C162.118789,891.486191 172.451602,974.148691 227.30668,1008.78641 L227.299082,1008.78641 Z M1257.89076,1628.10936 C1302.5042,1599.35223 1247.61113,1603.76646 1249.79926,1630.73814 L1257.89076,1628.10936 Z M1329.48348,1647.54416 C1386.66344,1606.29648 1294.86096,1639.635 1317.50957,1655.39254 L1329.48348,1647.54416 Z M370.286973,1036.20635 C412.165254,1045.58945 537.754512,1139.39012 463.684961,1042.71754 C425.734668,1031.4882 448.489648,938.728418 409.787187,955.12416 C435.771172,998.544766 431.136602,1016.96908 376.58543,989.655508 C308.084961,956.165039 338.088105,1006.2032 351.513164,1020.01574 C333.218008,1024.18686 375.650918,1035.86445 370.279375,1036.19875 L370.286973,1036.20635 Z M179.357871,885.430859 C186.856758,854.371641 110.24959,714.719121 143.193027,815.426055 C155.060566,836.539941 153.829746,876.526406 179.357871,885.430859 L179.357871,885.430859 Z M1490.40184,1609.13041 C1531.88504,1600.735 1626.43027,1630.25189 1641.67877,1598.15939 C1591.30631,1596.91338 1467.44932,1562.57957 1461.58393,1606.29648 L1472.61572,1608.04395 L1490.40943,1609.13041 L1490.40184,1609.13041 Z M198.450781,707.113867 C240.283477,690.718125 122.27668,673.129551 189.903418,704.036816 L198.450781,707.113867 Z M67.8242773,561.010938 C60.272207,517.689102 61.3130859,441.621367 133.604785,467.309043 C37.1145508,486.485527 200.426172,587.276035 179.806133,507.690586 C220.392812,509.68877 259.201641,483.704785 237.882617,523.091035 C317.870742,514.300547 373.272852,444.949141 450.518223,454.689336 C510.676465,446.696602 576.456973,440.679258 641.295371,416.435137 C694.600527,412.605918 745.915098,355.22082 716.717305,321.190918 C644.030527,315.036816 567.909609,324.123613 487.57959,340.124277 C398.557852,358.601777 317.680801,393.771328 227.846113,408.883066 C140.252734,420.659434 245.434688,441.271875 220.339629,445.89125 C174.677715,461.739961 274.845215,472.422266 214.428652,489.159902 C177.12416,482.063691 138.269746,469.246445 154.217227,429.898184 C70.3542969,440.823613 -3.37335938,475.598086 62.9085937,560.950156 L67.831875,560.995742 L67.8242773,561.010938 Z M269.982715,458.062695 C289.607461,385.634238 375.301426,517.689102 302.173984,467.704121 C293.474668,461.139746 279.061914,455.821387 269.982715,458.062695 Z M309.817227,423.538945 C312.415625,390.20043 392.350566,441.173105 322.991562,435.512852 L309.817227,423.531348 L309.817227,423.538945 Z M371.730527,395.275664 C401.733672,359.255176 541.484961,372.262363 439.190117,391.735156 C411.762578,371.069531 390.755059,403.906602 371.730527,395.275664 Z M605.928281,366.845234 C624.846445,317.270527 679.397617,346.931777 614.71877,356.861914 C616.101543,362.180273 612.781367,382.504004 605.928281,366.845234 Z M1823.1184,1609.78381 C1868.28646,1609.93576 1959.98258,1595.71295 1861.71449,1595.76613 C1846.26846,1598.15939 1771.84941,1597.66555 1823.1184,1609.78381 Z M266.753711,621.108398 C303.32123,618.623965 323.933672,580.81043 259.642305,582.952969 C160.037031,572.67334 347.524395,617.089238 246.878242,604.370762 C233.369609,613.313203 265.948359,623.592832 266.753711,621.108398 Z M215.522715,332.321484 C280.809375,310.166719 370.03625,285.223613 400.844746,343.262109 C369.489219,305.554941 388.179453,268.387207 417.78752,323.58418 C459.665801,379.381367 480.620137,298.20041 453.397734,279.46459 C484.456953,318.015098 519.725273,336.25707 474.162129,281.911035 C523.698848,222.337813 375.050703,289.70623 341.271523,289.007246 C325.027734,296.300996 173.446895,327.656523 215.530312,332.321484 L215.522715,332.321484 Z M253.776914,259.102871 C290.997832,231.037129 382.504004,275.840508 323.781719,231.173887 C318.022695,226.113848 195.21418,265.059434 253.776914,259.102871 Z M389.463457,264.709941 C432.982832,265.804004 370.689648,206.185195 422.55125,233.210059 C414.05707,205.395039 362.142285,200.175449 336.758516,189.05248 C322.398945,214.489434 365.956309,265.059434 389.463457,264.709941 L389.463457,264.709941 Z M333.035664,154.802246 C403.222812,145.51791 315.135586,124.601563 318.858437,154.065273 L333.028066,154.802246 L333.035664,154.802246 Z M229.479609,73.8264258 C180.04166,9.29193359 322.436934,84.6606836 272.20123,17.0871289 C229.927871,-16.5400977 189.341191,54.9994336 229.479609,73.8264258 L229.479609,73.8264258 Z M863.655977,415.394258 C886.327383,375.240645 770.113633,361.238164 848.40748,401.171445 C855.610059,403.564707 853.98416,418.167402 863.655977,415.394258 Z"/></g></svg>